# xmcd
#
# Track frame offsets:
# 150
# 15674
# 27053
# 41254
# 56730
# 72719
# 84004
# 97397
# 112444
# 128290
# 143107
# 158109
# 179398
# 194422
# 210706
# 225573
#
# Disc length: 3194 seconds
#
#
# Revision: 0
# Processed by: cddbd v1.5.2PL0 Copyright (c) Steve Scherf et al.
# Submitted via: FreeRIP 2.941 
#
DISCID=dc0c7810
DTITLE=JOAO VICTOR E GABRIEL  - JOAO VICTOR E GABRIEL AO VIVO
DYEAR=2009
DGENRE=SERTANEJO
TTITLE0=NOSSO NOVO BATIDAO
TTITLE1=LINDA MULHER
TTITLE2=CAMA VAZIA
TTITLE3=DEMOROU
TTITLE4=O QUE E QUE EU SOU SEM VOCE
TTITLE5=FELICIDADE
TTITLE6=AGARRA,AGARRA
TTITLE7=FINAL DA ESTRADA
TTITLE8=ENCABULADO
TTITLE9=CHOREI JUNTO COM A CHUVA
TTITLE10=MACHUCANDO O CORACAO
TTITLE11=POUT POURRI RASQUIADO
TTITLE12=AMOR COVARDE
TTITLE13=POUT POURRI VIOLA
TTITLE14=PONTO FINAL
TTITLE15=RELOGIO QUEBRADO
EXTD=
EXTT0=
EXTT1=
EXTT2=
EXTT3=
EXTT4=
EXTT5=
EXTT6=
EXTT7=
EXTT8=
EXTT9=
EXTT10=
EXTT11=
EXTT12=
EXTT13=
EXTT14=
EXTT15=
PLAYORDER=
